<mxfile host="65bd71144e">
    <diagram id="UfDXudGgWchaeT8dk7Dq" name="Page-1">
        <mxGraphModel dx="607" dy="502" grid="0" gridSize="10" guides="1" tooltips="1" connect="1" arrows="1" fold="1" page="1" pageScale="1" pageWidth="850" pageHeight="1100" math="0" shadow="0">
            <root>
                <mxCell id="0"/>
                <mxCell id="1" parent="0"/>
                <mxCell id="28" value="RELAY v4.0" style="rounded=0;whiteSpace=wrap;html=1;" parent="1" vertex="1">
                    <mxGeometry x="455" y="227" width="216" height="98" as="geometry"/>
                </mxCell>
                <mxCell id="29" value="COM" style="rounded=0;whiteSpace=wrap;html=1;fontSize=10;" parent="1" vertex="1">
                    <mxGeometry x="494" y="311" width="30" height="17" as="geometry"/>
                </mxCell>
                <mxCell id="30" value="NO" style="rounded=0;whiteSpace=wrap;html=1;fontSize=10;" parent="1" vertex="1">
                    <mxGeometry x="461" y="311" width="29" height="17" as="geometry"/>
                </mxCell>
                <mxCell id="31" value="NC" style="rounded=0;whiteSpace=wrap;html=1;fontSize=10;" parent="1" vertex="1">
                    <mxGeometry x="528" y="311" width="25" height="17" as="geometry"/>
                </mxCell>
                <mxCell id="34" value="GND" style="rounded=0;whiteSpace=wrap;html=1;fontSize=10;" parent="1" vertex="1">
                    <mxGeometry x="605" y="311" width="25" height="17" as="geometry"/>
                </mxCell>
                <mxCell id="35" value="VCC" style="rounded=0;whiteSpace=wrap;html=1;fontSize=10;" parent="1" vertex="1">
                    <mxGeometry x="635" y="311" width="25" height="17" as="geometry"/>
                </mxCell>
                <mxCell id="36" value="POWER" style="shape=cylinder3;whiteSpace=wrap;html=1;boundedLbl=1;backgroundOutline=1;size=15;" parent="1" vertex="1">
                    <mxGeometry x="524" y="569" width="60" height="80" as="geometry"/>
                </mxCell>
                <mxCell id="38" value="" style="curved=1;endArrow=none;html=1;entryX=0.5;entryY=1;entryDx=0;entryDy=0;exitX=0.633;exitY=0.013;exitDx=0;exitDy=0;exitPerimeter=0;endFill=0;startArrow=openThin;startFill=0;" parent="1" source="36" edge="1">
                    <mxGeometry width="50" height="50" relative="1" as="geometry">
                        <mxPoint x="559" y="565" as="sourcePoint"/>
                        <mxPoint x="539" y="328" as="targetPoint"/>
                        <Array as="points">
                            <mxPoint x="529" y="391"/>
                        </Array>
                    </mxGeometry>
                </mxCell>
                <mxCell id="39" value="LIGHT" style="ellipse;whiteSpace=wrap;html=1;aspect=fixed;" parent="1" vertex="1">
                    <mxGeometry x="314" y="424" width="80" height="80" as="geometry"/>
                </mxCell>
                <mxCell id="45" value="" style="endArrow=openThin;html=1;entryX=0.5;entryY=1;entryDx=0;entryDy=0;endFill=0;exitX=1.001;exitY=0.457;exitDx=0;exitDy=0;exitPerimeter=0;" parent="1" source="39" target="29" edge="1">
                    <mxGeometry width="50" height="50" relative="1" as="geometry">
                        <mxPoint x="392" y="457" as="sourcePoint"/>
                        <mxPoint x="455" y="423" as="targetPoint"/>
                        <Array as="points">
                            <mxPoint x="433" y="460"/>
                            <mxPoint x="472" y="457"/>
                            <mxPoint x="491" y="449"/>
                            <mxPoint x="501" y="439"/>
                            <mxPoint x="513" y="429"/>
                            <mxPoint x="513" y="402"/>
                            <mxPoint x="513" y="361"/>
                        </Array>
                    </mxGeometry>
                </mxCell>
                <mxCell id="46" value="" style="endArrow=openThin;html=1;entryX=0.975;entryY=0.688;entryDx=0;entryDy=0;entryPerimeter=0;endFill=0;" parent="1" target="39" edge="1">
                    <mxGeometry width="50" height="50" relative="1" as="geometry">
                        <mxPoint x="542" y="569" as="sourcePoint"/>
                        <mxPoint x="395" y="469" as="targetPoint"/>
                        <Array as="points">
                            <mxPoint x="523" y="488"/>
                            <mxPoint x="505" y="479"/>
                        </Array>
                    </mxGeometry>
                </mxCell>
                <mxCell id="47" value="" style="endArrow=none;html=1;" parent="1" edge="1">
                    <mxGeometry width="50" height="50" relative="1" as="geometry">
                        <mxPoint x="475.4" y="311" as="sourcePoint"/>
                        <mxPoint x="475" y="289" as="targetPoint"/>
                    </mxGeometry>
                </mxCell>
                <mxCell id="48" value="" style="endArrow=none;html=1;" parent="1" edge="1">
                    <mxGeometry width="50" height="50" relative="1" as="geometry">
                        <mxPoint x="540.7" y="311" as="sourcePoint"/>
                        <mxPoint x="540.3" y="289" as="targetPoint"/>
                    </mxGeometry>
                </mxCell>
                <mxCell id="50" value="" style="endArrow=none;html=1;" parent="1" edge="1">
                    <mxGeometry width="50" height="50" relative="1" as="geometry">
                        <mxPoint x="475" y="289" as="sourcePoint"/>
                        <mxPoint x="501" y="289" as="targetPoint"/>
                    </mxGeometry>
                </mxCell>
                <mxCell id="52" value="" style="endArrow=none;html=1;" parent="1" edge="1">
                    <mxGeometry width="50" height="50" relative="1" as="geometry">
                        <mxPoint x="514" y="289" as="sourcePoint"/>
                        <mxPoint x="540" y="289" as="targetPoint"/>
                    </mxGeometry>
                </mxCell>
                <mxCell id="54" value="" style="endArrow=none;html=1;" parent="1" edge="1">
                    <mxGeometry width="50" height="50" relative="1" as="geometry">
                        <mxPoint x="507.2" y="311" as="sourcePoint"/>
                        <mxPoint x="507" y="294" as="targetPoint"/>
                    </mxGeometry>
                </mxCell>
                <mxCell id="55" value="" style="endArrow=none;html=1;" parent="1" edge="1">
                    <mxGeometry width="50" height="50" relative="1" as="geometry">
                        <mxPoint x="507" y="294" as="sourcePoint"/>
                        <mxPoint x="502" y="290" as="targetPoint"/>
                    </mxGeometry>
                </mxCell>
                <mxCell id="56" value="SWITCH" style="rounded=1;whiteSpace=wrap;html=1;strokeColor=#000000;fillColor=#FFFFFF;" parent="1" vertex="1">
                    <mxGeometry x="310" y="336" width="72" height="47" as="geometry"/>
                </mxCell>
                <mxCell id="57" value="" style="endArrow=none;html=1;entryX=0.5;entryY=1;entryDx=0;entryDy=0;edgeStyle=orthogonalEdgeStyle;exitX=1.001;exitY=0.382;exitDx=0;exitDy=0;exitPerimeter=0;endFill=0;startArrow=none;startFill=0;" parent="1" source="56" target="30" edge="1">
                    <mxGeometry width="50" height="50" relative="1" as="geometry">
                        <mxPoint x="319" y="354" as="sourcePoint"/>
                        <mxPoint x="437" y="348" as="targetPoint"/>
                    </mxGeometry>
                </mxCell>
                <mxCell id="58" value="" style="endArrow=none;html=1;startArrow=none;startFill=0;endFill=0;" parent="1" edge="1">
                    <mxGeometry width="50" height="50" relative="1" as="geometry">
                        <mxPoint x="382" y="365" as="sourcePoint"/>
                        <mxPoint x="537" y="365" as="targetPoint"/>
                    </mxGeometry>
                </mxCell>
                <mxCell id="60" value="BUCK POWER&lt;br&gt;220V TO 5V" style="rounded=1;whiteSpace=wrap;html=1;strokeColor=#000000;fillColor=#FFFFFF;" parent="1" vertex="1">
                    <mxGeometry x="579" y="413" width="102" height="45" as="geometry"/>
                </mxCell>
                <mxCell id="61" value="" style="endArrow=openThin;html=1;endFill=0;entryX=0.48;entryY=0.999;entryDx=0;entryDy=0;entryPerimeter=0;" parent="1" target="60" edge="1">
                    <mxGeometry width="50" height="50" relative="1" as="geometry">
                        <mxPoint x="556" y="532" as="sourcePoint"/>
                        <mxPoint x="630" y="507" as="targetPoint"/>
                        <Array as="points">
                            <mxPoint x="604" y="511"/>
                            <mxPoint x="616" y="488"/>
                        </Array>
                    </mxGeometry>
                </mxCell>
                <mxCell id="62" value="" style="endArrow=openThin;html=1;entryX=0.367;entryY=0.978;entryDx=0;entryDy=0;endFill=0;entryPerimeter=0;" parent="1" target="60" edge="1">
                    <mxGeometry width="50" height="50" relative="1" as="geometry">
                        <mxPoint x="533" y="531" as="sourcePoint"/>
                        <mxPoint x="615" y="483" as="targetPoint"/>
                        <Array as="points">
                            <mxPoint x="596" y="502"/>
                        </Array>
                    </mxGeometry>
                </mxCell>
                <mxCell id="63" value="" style="endArrow=openThin;html=1;entryX=0.5;entryY=1;entryDx=0;entryDy=0;exitX=0.425;exitY=0.033;exitDx=0;exitDy=0;exitPerimeter=0;endFill=0;" parent="1" source="60" target="34" edge="1">
                    <mxGeometry width="50" height="50" relative="1" as="geometry">
                        <mxPoint x="575" y="415" as="sourcePoint"/>
                        <mxPoint x="625" y="365" as="targetPoint"/>
                    </mxGeometry>
                </mxCell>
                <mxCell id="64" value="" style="endArrow=openThin;html=1;entryX=0.5;entryY=1;entryDx=0;entryDy=0;exitX=0.573;exitY=0.009;exitDx=0;exitDy=0;exitPerimeter=0;endFill=0;" parent="1" source="60" edge="1">
                    <mxGeometry width="50" height="50" relative="1" as="geometry">
                        <mxPoint x="653" y="414.49" as="sourcePoint"/>
                        <mxPoint x="648.15" y="328.005" as="targetPoint"/>
                    </mxGeometry>
                </mxCell>
            </root>
        </mxGraphModel>
    </diagram>
</mxfile>